# Blender v2.58 (sub 1) OBJ File: ''
# www.blender.org
o Mesh_Mesh.032_mesh24_mesh2
v -27.713181 -0.000018 56.629520
v -29.842655 2.869986 42.692574
v -33.714413 2.869986 44.589790
v -23.923340 -0.000018 54.772446
v -34.215157 2.869988 33.769375
v -39.975353 2.869990 32.029030
v -30.032684 2.869992 23.000839
v -15.385009 2.869994 19.559740
v -14.005504 2.869996 11.087384
v 1.139021 2.869997 9.338130
v -1.193450 2.869998 3.039516
v 0.977280 2.870000 1.953640
v 3.148011 2.870000 0.867763
v 15.892958 2.870000 2.018142
v 12.382674 2.870002 -3.751748
v 13.987209 2.870002 -4.058872
v 16.709314 2.870000 -2.431252
v 16.903339 2.870000 0.734401
v 15.549721 2.870000 -3.581990
v 17.198156 2.870000 -0.872441
vt 2.353454 0.992630
vt 2.917222 0.992630
vt 2.827079 0.992630
vt 2.736936 0.992630
vt 0.403635 0.297890
vt 0.396128 0.347861
vt 0.382605 0.341039
vt 0.416872 0.304568
vt 0.380805 0.379842
vt 0.360665 0.386056
vt 0.395374 0.418480
vt 0.446553 0.430889
vt 0.451336 0.461280
vt 0.504259 0.467624
vt 0.496078 0.490202
vt 0.503660 0.494106
vt 0.511242 0.498010
vt 0.555792 0.493944
vt 0.543497 0.514621
vt 0.549104 0.515729
vt 0.558625 0.509905
vt 0.559317 0.498553
vt 0.554567 0.514027
vt 0.560341 0.504317
vn 0.000000 1.000000 0.000000
vn 0.000000 1.000000 -0.000031
vn -0.134281 0.953856 -0.268471
vn 0.131993 0.955473 0.263833
vn 0.091812 0.977990 0.187367
vn 0.000001 1.000000 0.000000
usemtl material_8_9_0_textur
s 1
f 15/1/1 11/2/2 12/3/3
f 15/1/1 12/3/3 13/4/4
usemtl material_3_8_0_textur
s off
f 1/5/5 2/6/5 3/7/5
f 2/6/5 1/5/5 4/8/5
f 5/9/1 3/7/1 2/6/1
f 3/7/1 5/9/1 6/10/1
f 5/9/1 7/11/1 6/10/1
f 7/11/1 5/9/1 8/12/1
f 7/11/1 8/12/1 9/13/1
f 9/13/1 8/12/1 10/14/1
f 9/13/1 10/14/1 11/15/1
f 11/15/1 10/14/1 12/16/1
f 13/17/1 10/14/1 14/18/1
f 12/16/1 10/14/1 13/17/1
f 13/17/1 14/18/1 15/19/1
f 15/19/1 14/18/1 16/20/1
f 17/21/1 14/18/1 18/22/1
f 16/20/6 14/18/6 19/23/6
f 19/23/1 14/18/1 17/21/1
f 17/21/1 18/22/1 20/24/1
